<svg width="64" height="17" viewBox="0 0 64 17" fill="none" xmlns="http://www.w3.org/2000/svg">
<g clip-path="url(#clip0_533_2488)">
<path d="M10.1636 12.3876H5.83691V4.6123H10.1636V12.3876Z" fill="#FF5F00"/>
<path d="M6.11133 8.49991C6.11068 7.75114 6.28038 7.01203 6.6076 6.33855C6.93481 5.66506 7.41096 5.07484 8 4.61258C7.27057 4.03933 6.39458 3.68285 5.47214 3.58388C4.5497 3.48492 3.61803 3.64745 2.78359 4.05292C1.94916 4.45839 1.24562 5.09042 0.753389 5.8768C0.261155 6.66318 7.97806e-05 7.57218 0 8.49991C0.00017803 9.42752 0.261284 10.3364 0.753485 11.1226C1.24569 11.9089 1.94913 12.5409 2.78345 12.9463C3.61777 13.3517 4.54931 13.5143 5.47164 13.4155C6.39397 13.3166 7.2699 12.9603 7.99933 12.3872C7.41049 11.9248 6.93452 11.3346 6.60743 10.6611C6.28034 9.98764 6.1107 9.24861 6.11133 8.49991Z" fill="#EB001B"/>
<path d="M16 8.49991C15.9999 9.42764 15.7388 10.3366 15.2466 11.123C14.7544 11.9094 14.0508 12.5414 13.2164 12.9469C12.382 13.3524 11.4503 13.5149 10.5279 13.4159C9.60542 13.317 8.72943 12.9605 8 12.3872C9.15 11.4819 9.88867 10.0772 9.88867 8.49991C9.88867 6.92257 9.15 5.51791 8 4.61258C8.72943 4.03933 9.60542 3.68285 10.5279 3.58388C11.4503 3.48492 12.382 3.64745 13.2164 4.05292C14.0508 4.45839 14.7544 5.09042 15.2466 5.8768C15.7388 6.66318 15.9999 7.57218 16 8.49991Z" fill="#F79E1B"/>
</g>
<g clip-path="url(#clip1_533_2488)">
<path d="M29.7339 11.2561H31.0289L31.8612 6.07715H30.4739L29.7339 11.2561Z" fill="#1565C0"/>
<path d="M28.6242 5.98491L27.4218 9.68424L27.1948 8.64225C26.5475 7.06991 25.4375 6.42258 25.4375 6.42258L26.5895 11.1639H27.9768L29.9192 5.98458H28.6242V5.98491ZM38.9825 5.98491H37.5952L35.4678 11.1642H36.7625L37.0398 10.4242H38.7045L38.8895 11.1642H39.9998L38.9825 5.98491ZM37.3178 9.49924L38.0578 7.55724L38.4278 9.49924H37.3178ZM33.6182 7.46458C33.6182 7.18724 33.8032 6.90958 34.4505 6.90958C34.9128 6.90958 35.3755 7.27958 35.3755 7.27958L35.6528 6.16991C35.6528 6.16991 35.0055 5.89258 34.4505 5.89258C33.0632 5.89258 32.4158 6.63258 32.4158 7.46491C32.4158 9.12958 34.2655 8.85224 34.2655 9.68458C34.2655 9.86958 34.1732 10.1469 33.4332 10.1469C32.6932 10.1469 32.1385 9.86958 32.1385 9.86958L31.9535 10.9792C31.9535 10.9792 32.4158 11.2566 33.3408 11.2566C34.1732 11.3489 35.4682 10.6092 35.4682 9.49924C35.4682 8.20458 33.6182 8.11224 33.6182 7.46458Z" fill="#1565C0"/>
<path d="M27.237 8.85148L26.7747 6.53948C26.7747 6.53948 26.5897 6.07715 26.0347 6.07715C25.4797 6.07715 24 6.07715 24 6.07715C24 6.07715 26.682 6.90948 27.237 8.85148Z" fill="#FF9800"/>
</g>
<path d="M60.4818 5.48438H51.5192C51.2012 5.48438 50.9434 5.74219 50.9434 6.06021V11.4228C50.9434 11.7408 51.2012 11.9986 51.5192 11.9986H60.4818C60.7998 11.9986 61.0576 11.7408 61.0576 11.4228V6.06021C61.0576 5.74219 60.7998 5.48438 60.4818 5.48438Z" fill="#F9F9F9" stroke="black" stroke-width="0.8" stroke-linecap="round" stroke-linejoin="round"/>
<path d="M51.5708 8.05068H52.0317C52.1356 8.05068 52.2148 8.0601 52.2694 8.07894C52.3427 8.10458 52.4054 8.15027 52.4576 8.21568C52.5099 8.28109 52.5496 8.36131 52.5769 8.45602C52.6041 8.5509 52.6177 8.66777 52.6177 8.80678C52.6177 8.92887 52.605 9.03422 52.5796 9.12264C52.5482 9.23078 52.5037 9.31799 52.4457 9.38479C52.402 9.43537 52.343 9.47496 52.2686 9.50339C52.2128 9.52432 52.1385 9.53479 52.0455 9.53479H51.5708V8.05068ZM51.823 8.30184V9.28467H52.0113C52.0817 9.28467 52.1325 9.27996 52.1638 9.27037C52.2046 9.25816 52.2386 9.23776 52.2655 9.20863C52.2925 9.17968 52.3145 9.13188 52.3315 9.06561C52.3486 8.99898 52.3571 8.90846 52.3571 8.79352C52.3571 8.67893 52.3486 8.59085 52.3315 8.52946C52.3145 8.46806 52.2907 8.4201 52.2601 8.38574C52.2273 8.35011 52.1869 8.32596 52.1434 8.31597C52.1081 8.30638 52.0392 8.30167 51.9364 8.30167L51.823 8.30184ZM52.8248 9.53461V8.05068H53.0769V9.53461H52.8248ZM53.2524 9.05183L53.4978 9.0234C53.5125 9.12125 53.5424 9.19311 53.5876 9.23898C53.6327 9.28502 53.6936 9.30787 53.7704 9.30787C53.8515 9.30787 53.9127 9.28747 53.9538 9.24665C53.9951 9.20584 54.0156 9.15805 54.0156 9.10346C54.0164 9.07083 54.0071 9.03898 53.9896 9.0138C53.9723 8.98921 53.9421 8.96776 53.8989 8.94962C53.8694 8.93741 53.8021 8.91578 53.6971 8.88474C53.5619 8.84497 53.4671 8.79596 53.4125 8.73805C53.3359 8.65625 53.2976 8.55666 53.2976 8.43928C53.2976 8.36376 53.3157 8.29312 53.3516 8.22736C53.3877 8.16143 53.4397 8.11138 53.5075 8.07702C53.5754 8.04248 53.6572 8.02539 53.7533 8.02539C53.9101 8.02539 54.028 8.0662 54.1072 8.14783C54.1865 8.22946 54.228 8.33847 54.232 8.47486L53.9798 8.48794C53.9691 8.41172 53.9461 8.35678 53.9104 8.32347C53.875 8.28998 53.8217 8.27341 53.7507 8.27341C53.6775 8.27341 53.6201 8.2912 53.5787 8.32696C53.566 8.33709 53.5557 8.35083 53.5487 8.36693C53.5417 8.38302 53.5383 8.40094 53.5386 8.41905C53.5386 8.45428 53.5511 8.48428 53.576 8.50922C53.6079 8.54096 53.6851 8.57393 53.8079 8.60846C53.9305 8.64282 54.0212 8.6784 54.0799 8.7152C54.1386 8.75183 54.1847 8.80242 54.2179 8.86608C54.2512 8.92974 54.2678 9.00857 54.2678 9.10241C54.2678 9.18735 54.248 9.26706 54.2082 9.34136C54.1684 9.41549 54.1122 9.47077 54.0394 9.50688C53.9667 9.54298 53.8762 9.56095 53.7679 9.56095C53.6099 9.56095 53.4887 9.51752 53.404 9.43084C53.3195 9.34415 53.269 9.21787 53.2524 9.05183ZM55.2807 8.98904L55.5251 9.08113C55.4876 9.24316 55.4252 9.36333 55.3382 9.44217C55.251 9.52066 55.1404 9.5599 55.0063 9.5599C54.8405 9.5599 54.7043 9.49258 54.5974 9.35793C54.4907 9.22346 54.4375 9.03927 54.4375 8.80573C54.4375 8.55875 54.491 8.36707 54.5983 8.23033C54.7056 8.09376 54.8468 8.02539 55.0216 8.02539C55.1744 8.02539 55.2986 8.07894 55.394 8.18638C55.4508 8.24969 55.4933 8.34091 55.5217 8.45968L55.2722 8.5305C55.2575 8.45358 55.2267 8.39271 55.1797 8.34824C55.1327 8.30376 55.0759 8.28143 55.0088 8.28143C54.9164 8.28143 54.8412 8.32085 54.7835 8.40004C54.726 8.47887 54.6971 8.60672 54.6971 8.78358C54.6971 8.97108 54.7256 9.10485 54.7822 9.18438C54.8392 9.26409 54.9129 9.30386 55.0039 9.30386C55.0708 9.30386 55.1285 9.27857 55.1768 9.22799C55.225 9.17741 55.2597 9.0977 55.2807 8.98904ZM55.6912 8.80171C55.6912 8.65067 55.7103 8.5237 55.7484 8.42114C55.7768 8.34562 55.8155 8.27777 55.8645 8.2176C55.9137 8.1576 55.9676 8.11295 56.026 8.08399C56.1038 8.04492 56.1935 8.02539 56.2952 8.02539C56.4792 8.02539 56.6264 8.09324 56.737 8.22876C56.8473 8.36446 56.9025 8.55318 56.9025 8.79474C56.9025 9.03421 56.8478 9.22171 56.7381 9.35706C56.6285 9.49223 56.482 9.5599 56.2986 9.5599C56.1129 9.5599 55.9654 9.49258 55.8556 9.35793C55.7461 9.22346 55.6912 9.03787 55.6912 8.80171ZM55.951 8.7916C55.951 8.95974 55.9837 9.08706 56.049 9.17375C56.1143 9.26043 56.1973 9.30386 56.2977 9.30386C56.3982 9.30386 56.4807 9.26078 56.5451 9.17479C56.6097 9.0888 56.642 8.95974 56.642 8.78759C56.642 8.61753 56.6104 8.49073 56.5478 8.40701C56.485 8.32329 56.4017 8.28143 56.2977 8.28143C56.1938 8.28143 56.1101 8.32381 56.0464 8.40858C55.9828 8.49317 55.951 8.62085 55.951 8.7916ZM57.4171 9.53461L56.9706 8.05068H57.2441L57.5602 9.14898L57.866 8.05068H58.1335L57.6863 9.53461H57.4171ZM58.2639 9.53461V8.05068H59.1897V8.30184H58.516V8.63061H59.1429V8.88073H58.5159V9.28467H59.2136V9.53461H58.2639ZM59.43 9.53461V8.05068H59.9607C60.0941 8.05068 60.1912 8.06394 60.2516 8.0908C60.3121 8.11731 60.3605 8.16475 60.3969 8.23295C60.4332 8.30097 60.4512 8.37893 60.4512 8.46666C60.4512 8.57811 60.4238 8.67003 60.3688 8.74259C60.3136 8.81515 60.2312 8.86085 60.1217 8.87968C60.1762 8.91753 60.2212 8.95904 60.2568 9.00421C60.2921 9.04956 60.34 9.12979 60.4002 9.24508L60.5528 9.53461H60.2512L60.0689 9.21177C60.0042 9.09631 59.9598 9.02357 59.9359 8.99375C59.9152 8.96618 59.8892 8.94494 59.8602 8.93183C59.8335 8.92067 59.7912 8.91509 59.7332 8.91509H59.6821V9.53461H59.43ZM59.6821 8.67823H59.8685C59.9896 8.67823 60.0652 8.67213 60.0953 8.66009C60.1241 8.64908 60.1489 8.62698 60.1659 8.5973C60.1829 8.56765 60.1914 8.5305 60.1914 8.48585C60.1914 8.43597 60.1803 8.39567 60.1578 8.36498C60.1354 8.33428 60.1038 8.31492 60.0629 8.30672C60.0423 8.30324 59.9811 8.30167 59.8788 8.30167H59.6821V8.67823Z" fill="#1A1A1A"/>
<path fill-rule="evenodd" clip-rule="evenodd" d="M57.1366 8.80924C57.1381 8.91499 57.1186 9.01998 57.0791 9.11811C57.0397 9.21624 56.9812 9.30555 56.9069 9.38086C56.8327 9.45617 56.7442 9.51597 56.6466 9.55679C56.5491 9.5976 56.4444 9.61862 56.3386 9.61862C56.2329 9.61862 56.1281 9.5976 56.0306 9.55679C55.933 9.51597 55.8445 9.45617 55.7703 9.38086C55.696 9.30555 55.6375 9.21624 55.5981 9.11811C55.5586 9.01998 55.5391 8.91499 55.5406 8.80924C55.5436 8.59956 55.629 8.39946 55.7783 8.25223C55.9276 8.105 56.1289 8.02246 56.3386 8.02246C56.5483 8.02246 56.7496 8.105 56.8989 8.25223C57.0483 8.39946 57.1336 8.59956 57.1366 8.80924Z" fill="#FC8100"/>
<path d="M60.9937 9.5957L53.7036 11.8005L53.4487 11.9355H60.4529C60.7719 11.9355 60.9937 11.7259 60.9937 11.4071V9.5957Z" fill="#FC8100"/>
<defs>
<clipPath id="clip0_533_2488">
<rect width="16" height="16" fill="white" transform="translate(0 0.5)"/>
</clipPath>
<clipPath id="clip1_533_2488">
<rect width="16" height="16" fill="white" transform="translate(24 0.5)"/>
</clipPath>
</defs>
</svg>