<svg width="18" height="22" viewBox="0 0 18 22" fill="none" xmlns="http://www.w3.org/2000/svg">
<path d="M17.375 9.50006C17.375 11.7126 16.5978 13.7404 15.1859 15.2076C13.8613 16.5847 12.0622 17.3751 10.25 17.3751C8.80156 17.3751 7.73938 16.9832 6.97906 16.5022L6.095 20.2579C6.0624 20.403 6.00137 20.5401 5.91542 20.6615C5.82947 20.7829 5.72031 20.886 5.59426 20.9649C5.46821 21.0438 5.32777 21.0969 5.18106 21.1212C5.03435 21.1455 4.88428 21.1404 4.73953 21.1063C4.59479 21.0722 4.45823 21.0098 4.33777 20.9226C4.2173 20.8354 4.11531 20.7252 4.03771 20.5984C3.9601 20.4715 3.90842 20.3305 3.88564 20.1836C3.86286 20.0366 3.86944 19.8866 3.905 19.7422L6.905 6.99224C6.9376 6.84715 6.99864 6.70997 7.08459 6.58861C7.17053 6.46726 7.27969 6.36415 7.40574 6.28525C7.53179 6.20635 7.67223 6.15323 7.81894 6.12894C7.96565 6.10466 8.11572 6.10971 8.26047 6.14379C8.40522 6.17787 8.54177 6.24031 8.66224 6.32749C8.7827 6.41468 8.88469 6.52489 8.96229 6.65174C9.0399 6.77859 9.09159 6.91956 9.11436 7.06652C9.13714 7.21347 9.13056 7.36348 9.095 7.50787L7.55281 14.0638C7.88 14.4557 8.67125 15.1251 10.25 15.1251C12.6463 15.1251 15.125 13.0204 15.125 9.50006C15.1245 8.52251 14.8992 7.55817 14.4665 6.6816C14.0338 5.80503 13.4053 5.03971 12.6297 4.4448C11.854 3.84989 10.9519 3.44134 9.99308 3.25072C9.0343 3.06011 8.04452 3.09254 7.10028 3.34551C6.15603 3.59848 5.2826 4.06521 4.54753 4.70962C3.81246 5.35403 3.23543 6.15885 2.86105 7.06187C2.48667 7.96489 2.32497 8.9419 2.38846 9.91739C2.45195 10.8929 2.73892 11.8407 3.22719 12.6876C3.365 12.945 3.39728 13.246 3.31721 13.5269C3.23714 13.8077 3.05099 14.0464 2.79812 14.1925C2.54525 14.3386 2.24547 14.3807 1.96216 14.3098C1.67886 14.2389 1.43423 14.0606 1.28 13.8126C0.6187 12.6668 0.229811 11.3843 0.143415 10.0643C0.0570186 8.74421 0.275431 7.42196 0.781757 6.19981C1.28808 4.97766 2.06875 3.88835 3.06338 3.01615C4.05801 2.14395 5.23994 1.51223 6.51776 1.16985C7.79557 0.827471 9.13501 0.783614 10.4325 1.04167C11.73 1.29972 12.9507 1.85278 14.0002 2.65805C15.0498 3.46332 15.9 4.49922 16.4852 5.68563C17.0704 6.87205 17.3749 8.17717 17.375 9.50006Z" fill="white"/>
</svg>