<svg width="24" height="24" viewBox="0 0 24 24" fill="none" xmlns="http://www.w3.org/2000/svg">
<path d="M22.125 6.50625C21.9827 6.34659 21.8082 6.21892 21.613 6.13165C21.4178 6.04439 21.2063 5.99952 20.9925 6H16.5C16.5 4.80653 16.0259 3.66193 15.182 2.81802C14.338 1.97411 13.1934 1.5 12 1.5C10.8065 1.5 9.66191 1.97411 8.818 2.81802C7.97408 3.66193 7.49998 4.80653 7.49998 6H3.00748C2.79491 6.00057 2.58485 6.04596 2.391 6.13319C2.19716 6.22042 2.02388 6.34754 1.88248 6.50625C1.74225 6.66437 1.63703 6.85035 1.5737 7.05198C1.51036 7.25361 1.49035 7.46635 1.51498 7.67625L2.85185 18.9263C2.89521 19.2928 3.0722 19.6305 3.34894 19.8747C3.62569 20.1189 3.98276 20.2526 4.35185 20.25H19.6565C20.0256 20.2526 20.3827 20.1189 20.6594 19.8747C20.9362 19.6305 21.1132 19.2928 21.1565 18.9263L22.4934 7.67625C22.5179 7.46628 22.4978 7.2535 22.4343 7.05187C22.3708 6.85023 22.2654 6.6643 22.125 6.50625ZM12 3C12.7956 3 13.5587 3.31607 14.1213 3.87868C14.6839 4.44129 15 5.20435 15 6H8.99998C8.99998 5.20435 9.31605 4.44129 9.87866 3.87868C10.4413 3.31607 11.2043 3 12 3ZM19.665 18.75C19.6623 18.751 19.6593 18.751 19.6565 18.75H4.33591L3.00748 7.5H7.49998V9.75C7.49998 9.94891 7.57899 10.1397 7.71965 10.2803C7.8603 10.421 8.05106 10.5 8.24998 10.5C8.44889 10.5 8.63965 10.421 8.78031 10.2803C8.92096 10.1397 8.99998 9.94891 8.99998 9.75V7.5H15V9.75C15 9.94891 15.079 10.1397 15.2196 10.2803C15.3603 10.421 15.5511 10.5 15.75 10.5C15.9489 10.5 16.1397 10.421 16.2803 10.2803C16.421 10.1397 16.5 9.94891 16.5 9.75V7.5H21L19.665 18.75Z" fill="#0F0F0F"/>
</svg>